<svg width="453" height="453" viewBox="0 0 453 453" fill="none" xmlns="http://www.w3.org/2000/svg">
<path d="M452.876 224.118C452.725 222.166 452.036 220.255 450.793 218.615C448.872 216.08 445.778 214.395 442.407 213.635C434.505 211.854 426.023 216.09 418.332 216.593C412.818 216.955 407.4 217.383 401.897 217.025C401.314 214.43 398.783 212.433 395.594 212.433H387.319C384.381 178.418 370.914 147.421 350.169 122.727L356.014 116.882C358.268 114.628 358.645 111.424 357.221 109.176C360.864 105.031 364.993 101.504 369.149 97.8624C374.944 92.7818 383.933 89.7787 388.264 82.9324C390.765 78.9786 391.57 74.2853 389.789 70.4874C388.722 68.2137 386.75 66.3475 384.884 64.7478C383.4 63.4752 381.559 62.61 379.517 62.3283C376.362 61.8957 372.987 62.8866 370.064 64.7328C363.218 69.0639 360.215 78.053 355.134 83.8479C351.492 88.003 347.965 92.1329 343.82 95.7748C341.572 94.3512 338.367 94.7285 336.114 96.9821L330.268 102.827C305.569 82.0823 274.576 68.6162 240.56 65.6785V57.4036C240.56 54.2144 238.563 51.6841 235.967 51.1006C235.61 45.5975 236.037 40.1798 236.4 34.6666C236.903 26.9752 241.138 18.4992 239.358 10.5915C238.331 6.02903 235.58 2.1406 231.636 0.711996C229.271 -0.143156 226.555 -0.0677023 224.11 0.123449C222.158 0.274359 220.247 0.963511 218.607 2.206C216.071 4.12758 214.386 7.22122 213.627 10.5915C211.846 18.4941 216.082 26.9752 216.585 34.6666C216.947 40.1798 217.374 45.5975 217.017 51.1006C214.421 51.6841 212.424 54.2144 212.424 57.4036V65.6785C178.408 68.6162 147.411 82.0823 122.716 102.827L116.871 96.9821C114.617 94.7285 111.413 94.3512 109.164 95.7748C105.019 92.1329 101.492 88.003 97.8504 83.8479C92.7696 78.053 89.7664 69.0639 82.92 64.7328C78.966 62.2327 74.2726 61.4278 70.4746 63.2086C68.2008 64.275 66.3345 66.2469 64.7348 68.1131C63.4621 69.5971 62.5969 71.4382 62.3152 73.4805C61.8825 76.6345 62.8735 80.0098 64.7197 82.9324C69.051 89.7787 78.0404 92.7818 83.8355 97.8624C87.9907 101.504 92.1207 105.031 95.7628 109.176C94.3391 111.424 94.7164 114.628 96.9701 116.882L102.815 122.727C82.0698 147.426 68.6032 178.418 65.6655 212.433H57.4054C54.2161 212.433 51.6858 214.43 51.1022 217.025C45.5989 217.383 40.1811 216.955 34.6677 216.593C26.9761 216.09 18.4998 211.854 10.5919 213.635C6.02923 214.661 2.14067 217.413 0.712017 221.357C-0.143163 223.721 -0.0677038 226.437 0.123454 228.882C0.274368 230.834 0.963543 232.745 2.20607 234.385C4.12771 236.92 7.22145 238.605 10.5919 239.365C18.4947 241.146 26.9761 236.91 34.6677 236.407C40.1811 236.045 45.5989 235.617 51.1022 235.975C51.6858 238.57 54.2161 240.567 57.4054 240.567H65.6805C68.6183 274.582 82.0849 305.579 102.831 330.273L96.9852 336.118C94.7315 338.372 94.3542 341.576 95.7778 343.824C92.1358 347.969 88.0058 351.496 83.8506 355.138C78.0555 360.218 69.066 363.221 64.7348 370.068C62.2347 374.021 61.4298 378.715 63.2106 382.513C64.277 384.786 66.249 386.653 68.1153 388.252C69.5993 389.525 71.4404 390.39 73.4828 390.672C76.6369 391.104 80.0123 390.113 82.9351 388.267C89.7815 383.936 92.7847 374.947 97.8655 369.152C101.508 364.997 105.034 360.867 109.179 357.225C111.428 358.649 114.632 358.272 116.886 356.018L122.731 350.173C147.431 370.918 178.423 384.384 212.439 387.322V395.596C212.439 398.786 214.437 401.316 217.032 401.899C217.389 407.403 216.962 412.82 216.6 418.333C216.097 426.025 211.861 434.501 213.642 442.408C214.668 446.971 217.42 450.859 221.364 452.288C223.728 453.143 226.444 453.068 228.889 452.877C230.841 452.726 232.753 452.036 234.392 450.794C236.928 448.872 238.613 445.779 239.373 442.408C241.153 434.506 236.918 426.025 236.415 418.333C236.053 412.82 235.625 407.403 235.982 401.899C238.578 401.316 240.575 398.786 240.575 395.596V387.322C274.591 384.384 305.589 370.918 330.283 350.173L336.129 356.018C338.382 358.272 341.587 358.649 343.835 357.225C347.98 360.867 351.507 364.997 355.149 369.152C360.23 374.947 363.233 383.936 370.079 388.267C374.033 390.767 378.727 391.572 382.525 389.791C384.798 388.725 386.665 386.753 388.264 384.887C389.537 383.403 390.402 381.562 390.684 379.52C391.117 376.366 390.126 372.99 388.28 370.068C383.948 363.221 374.959 360.218 369.164 355.138C365.009 351.496 360.879 347.969 357.237 343.824C358.66 341.576 358.283 338.372 356.029 336.118L350.184 330.273C370.929 305.574 384.396 274.582 387.334 240.567H395.609C398.798 240.567 401.329 238.57 401.912 235.975C407.415 235.617 412.833 236.045 418.347 236.407C426.038 236.91 434.515 241.146 442.423 239.365C446.985 238.339 450.874 235.587 452.302 231.643C453.142 229.279 453.067 226.563 452.876 224.118ZM92.5634 230.899C90.1337 230.899 88.1617 228.927 88.1617 226.497C88.1617 224.068 90.1337 222.096 92.5634 222.096C94.9931 222.096 96.965 224.068 96.965 226.497C96.965 228.927 94.9931 230.899 92.5634 230.899ZM318.094 128.683C319.815 126.963 322.602 126.963 324.317 128.683C326.038 130.403 326.038 133.19 324.317 134.906C322.597 136.626 319.81 136.626 318.094 134.906C316.374 133.185 316.374 130.398 318.094 128.683ZM235.68 135.499C238.422 135.057 240.565 132.436 240.565 129.126V121.379C259.339 123.869 276.528 131.254 290.875 142.225L285.401 147.698C283.218 149.881 282.801 152.954 284.063 155.193L257.065 182.191C254.826 180.928 251.753 181.345 249.569 183.529L247.14 185.958C245.032 184.882 242.844 183.951 240.565 183.212V179.801C240.565 176.491 238.422 173.87 235.68 173.428V135.499ZM226.5 88.164C228.929 88.164 230.901 90.1358 230.901 92.5655C230.901 94.9951 228.929 96.967 226.5 96.967C224.07 96.967 222.098 94.9951 222.098 92.5655C222.098 90.1358 224.07 88.164 226.5 88.164ZM212.434 121.379V129.126C212.434 132.214 214.311 134.684 216.786 135.373V173.553C214.311 174.243 212.434 176.713 212.434 179.801V183.212C210.156 183.951 207.962 184.882 205.86 185.958L203.43 183.529C201.091 181.189 197.72 180.852 195.467 182.477L168.644 155.661C170.269 153.407 169.932 150.037 167.593 147.698L162.12 142.225C176.467 131.254 193.656 123.874 212.434 121.379ZM128.682 128.683C130.403 126.963 133.189 126.963 134.905 128.683C136.625 130.403 136.625 133.19 134.905 134.906C133.184 136.626 130.398 136.626 128.682 134.906C126.962 133.185 126.962 130.398 128.682 128.683ZM142.229 162.12L147.702 167.593C149.886 169.776 152.959 170.193 155.198 168.931L182.196 195.928C180.934 198.167 181.351 201.24 183.534 203.423L185.964 205.853C184.888 207.961 183.957 210.149 183.217 212.428H179.807C176.497 212.428 173.876 214.571 173.433 217.312H135.503C135.061 214.571 132.44 212.428 129.13 212.428H121.383C123.873 193.655 131.253 176.466 142.229 162.12ZM134.905 324.312C133.184 326.032 130.398 326.032 128.682 324.312C126.962 322.592 126.962 319.805 128.682 318.089C130.403 316.374 133.189 316.369 134.905 318.089C136.625 319.81 136.625 322.597 134.905 324.312ZM147.697 285.402L142.224 290.875C131.248 276.529 123.868 259.34 121.378 240.567H129.125C132.214 240.567 134.684 238.691 135.373 236.216H173.554C174.243 238.691 176.713 240.567 179.802 240.567H183.212C183.952 242.846 184.883 245.039 185.959 247.142L183.529 249.572C181.19 251.911 180.853 255.281 182.478 257.535L155.656 284.356C153.407 282.726 150.036 283.063 147.697 285.402ZM217.319 317.496C214.577 317.938 212.434 320.559 212.434 323.869V331.616C193.661 329.126 176.472 321.741 162.125 310.77L167.598 305.297C169.781 303.114 170.199 300.041 168.936 297.802L195.935 270.804C198.173 272.067 201.247 271.65 203.43 269.466L205.86 267.037C207.967 268.113 210.156 269.044 212.434 269.783V273.194C212.434 276.504 214.577 279.125 217.319 279.567V317.496ZM226.5 364.831C224.07 364.831 222.098 362.859 222.098 360.43C222.098 358 224.07 356.028 226.5 356.028C228.929 356.028 230.901 358 230.901 360.43C230.901 362.859 228.929 364.831 226.5 364.831ZM226.5 240.215C218.924 240.215 212.782 234.073 212.782 226.497C212.782 218.922 218.924 212.78 226.5 212.78C234.076 212.78 240.218 218.922 240.218 226.497C240.218 234.073 234.076 240.215 226.5 240.215ZM240.57 331.616V323.869C240.57 320.781 238.693 318.316 236.219 317.622V279.441C238.693 278.752 240.57 276.282 240.57 273.194V269.783C242.849 269.044 245.042 268.113 247.145 267.037L249.574 269.466C251.914 271.806 255.284 272.143 257.538 270.518L284.36 297.339C282.735 299.593 283.072 302.963 285.411 305.302L290.885 310.775C276.533 321.741 259.344 329.121 240.57 331.616ZM324.322 324.312C322.602 326.032 319.815 326.032 318.099 324.312C316.379 322.592 316.379 319.805 318.099 318.089C319.82 316.369 322.607 316.369 324.322 318.089C326.038 319.81 326.038 322.597 324.322 324.312ZM310.775 290.87L305.302 285.397C303.119 283.214 300.045 282.797 297.807 284.059L270.808 257.062C272.071 254.823 271.653 251.75 269.47 249.566L267.04 247.137C268.117 245.029 269.047 242.841 269.787 240.562H273.198C276.508 240.562 279.128 238.419 279.571 235.678H317.501C317.944 238.419 320.564 240.562 323.874 240.562H331.621C329.126 259.34 321.747 276.529 310.775 290.87ZM323.874 212.428C320.786 212.428 318.321 214.304 317.627 216.779H279.445C278.756 214.304 276.286 212.428 273.198 212.428H269.787C269.047 210.149 268.117 207.956 267.04 205.853L269.47 203.423C271.809 201.084 272.146 197.714 270.521 195.46L297.344 168.639C299.597 170.264 302.968 169.927 305.307 167.588L310.78 162.115C321.757 176.461 329.136 193.645 331.626 212.423L323.874 212.428ZM360.436 230.899C358.006 230.899 356.034 228.927 356.034 226.497C356.034 224.068 358.006 222.096 360.436 222.096C362.866 222.096 364.838 224.068 364.838 226.497C364.838 228.927 362.866 230.899 360.436 230.899Z" fill="url(#paint0_radial_1_20)"/>
<defs>
<radialGradient id="paint0_radial_1_20" cx="0" cy="0" r="1" gradientUnits="userSpaceOnUse" gradientTransform="translate(226.5 226.5) rotate(90) scale(226.5)">
<stop stop-color="#020711"/>
<stop offset="1" stop-color="#0E485A"/>
</radialGradient>
</defs>
</svg>
